<?xml version="1.0" encoding="utf-8"?>
<!-- Generator: Adobe Illustrator 16.0.4, SVG Export Plug-In . SVG Version: 6.00 Build 0)  -->
<!DOCTYPE svg PUBLIC "-//W3C//DTD SVG 1.1//EN" "http://www.w3.org/Graphics/SVG/1.1/DTD/svg11.dtd">
<svg version="1.1" id="Layer_1" xmlns="http://www.w3.org/2000/svg" xmlns:xlink="http://www.w3.org/1999/xlink" x="0px" y="0px"
	 width="500.0px" height="500.0px" viewBox="0 0 500 500" enable-background="new 0 0 500 500"
	 xml:space="preserve">
<g transform="translate(250 250)">
	<g transform="rotate(180)">
	<!-- torso -->

	<g transform="scale(.7 1)">
	<polygon fill="#a71814" points="-50,-50 50,-50 -50,50 "/>
	<polygon fill="#a71814" points="-50,50 50,-50 50,50"/>
	</g>

	<!-- head -->
	<g transform="translate(0 -80)">
			<g transform="scale(.5 .5)">
				<polygon fill="#a71814" points="-50,-50 50,-50 -50,50 "/>
				<polygon fill="#a71814" points="-50,50 50,-50 50,50"/>
			</g>

			
	</g>

	<g transform="scale(.25 .25)">
			<g transform="translate(10 -240)">
				<g transform="translate(20 -100)">
				<g transform="rotate(-20)">
				<polygon fill="#FFFFFF" points="-30,70 70,-30 30,60"/>
				</g>
				</g>



				
			</g>

			<g transform="translate(10 -240)">
			<g transform="translate(-20 -100)">
				<g transform="rotate(20)">
				<polygon fill="#FFFFFF" points="30,70 -70,-30 -30,60"/>
				</g>
				</g>

				
			</g>
	</g>

	<g transform="translate(0 -10)">
	<polygon fill="#000000" points="-20,-2.5 20,-2.5 -20,2.5 "/>
	<polygon fill="#000000" points="-20,2.5 20,-2.5 20,2.5"/>

	<g transform="translate(0 -20)">
	<polygon fill="#000000" points="-20,-2.5 20,-2.5 -20,2.5 "/>
	<polygon fill="#000000" points="-20,2.5 20,-2.5 20,2.5"/>
	</g>

	<g transform="translate(0 20)">
	<polygon fill="#000000" points="-20,-2.5 20,-2.5 -20,2.5 "/>
	<polygon fill="#000000" points="-20,2.5 20,-2.5 20,2.5"/>
	</g>

	<g transform="translate(0 40)">
	<polygon fill="#000000" points="-20,-2.5 20,-2.5 -20,2.5 "/>
	<polygon fill="#000000" points="-20,2.5 20,-2.5 20,2.5"/>

	<g transform="translate(0 -30)">
	<g transform="rotate(90)">
	<g transform="scale(1.7 1)">
	<polygon fill="#000000" points="-20,-2.5 20,-2.5 -20,2.5 "/>
	<polygon fill="#000000" points="-20,2.5 20,-2.5 20,2.5"/>
	</g>
	</g>
	</g>

	</g>
	</g>

	<g transform="translate(0 100)">
	<polygon fill="#d3d3d3" points="-5,-150 5,-150 -5,150 "/>
	<polygon fill="#d3d3d3" points="-5,150 5,-150 5,150"/>
	</g>
	<!-- left leg -->
	<g transform="translate(-70 50)">
	<g transform="rotate(285)">
		<g transform="scale(.3 .8)">
		
			<polygon fill="#0a2b4e" points="-50,-50 50,-50 -50,50 "/>
			<polygon fill="#0a2b4e" points="-50,50 50,-50 50,50"/>
		</g>
		</g>
		<g transform="translate(0 40)">
		<g transform="rotate(135)">
			<g transform="scale(.3 1.2)">
				<polygon fill="#DF1F2D" points="-50,-50 50,-50 -50,50 "/>
				<polygon fill="#DF1F2D" points="-50,50 50,-50 50,50"/>
			</g>
			</g>
		</g>
	</g>

	<!-- right leg -->
	
	<g transform="translate(70 50)">
		<g transform="rotate(255)">
		<g transform="scale(.3 .8)">
		
			<polygon fill="#0a2b4e" points="-50,-50 50,-50 -50,50 "/>
			<polygon fill="#0a2b4e" points="-50,50 50,-50 50,50"/>
		</g>
		</g>
		<g transform="translate(0 40)">
		<g transform="rotate(45)">
			<g transform="scale(.3 1.2)">
				<polygon fill="#DF1F2D" points="-50,-50 50,-50 -50,50 "/>
				<polygon fill="#DF1F2D" points="-50,50 50,-50 50,50"/>
			</g>
			</g>
		</g>
	</g>

	<g transform="translate(-60 -40)">
	<g transform="rotate(-25)">
		<g transform="scale(.6 .2)">
		
			<polygon fill="#a71814" points="-50,-50 50,-50 -50,50 "/>
			<polygon fill="#a71814" points="-50,50 50,-50 50,50"/>
		</g>
		</g>
		<g transform="translate(20 40)">
		<g transform="rotate(45)">
			<g transform="scale(.8 .2)">
				<polygon fill="#DF1F2D" points="-50,-50 50,-50 -50,50 "/>
				<polygon fill="#DF1F2D" points="-50,50 50,-50 50,50"/>
			</g>
			</g>
		</g>
	</g>


	<g transform="translate(60 -40)">
		<g transform="rotate(25)">
		<g transform="scale(.6 .2)">
			<polygon fill="#a71814" points="-50,-50 50,-50 -50,50 "/>
			<polygon fill="#a71814" points="-50,50 50,-50 50,50"/>
		</g>
		</g>
		<g transform="translate(-20 40)">
		<g transform="rotate(-45)">
			<g transform="scale(.8 .2)">
				<polygon fill="#DF1F2D" points="-50,-50 50,-50 -50,50 "/>
				<polygon fill="#DF1F2D" points="-50,50 50,-50 50,50"/>
			</g>
			</g>
		</g>
	</g>

</g>
</g>


</svg>
